#!OML:ASF F:\VICON\USERDATA\INSTALL\rory3\rory3.ASF
:FULLY-SPECIFIED
:DEGREES
73
root 0.18573307374888612 18.082631382194506 41.75896658854292 4.5558795418517155 0.7105359948937087 -1.1816553674555228
lfemur 6.201310085949364 -2.322272823219029 -25.002075950795707
ltibia 42.67358882342378
lfoot -5.644156911419907 -4.080738532885996
ltoes -28.26197843075186
rfemur -32.70031546866571 -0.0027550125042730134 25.837071509908633
rtibia 62.70424057627723
rfoot -3.763829889009955 -6.69838063383319
rtoes -2.850937717642345
lowerback 13.791214893640149 -0.9142841036598943 -0.9867149590812521
upperback -2.017969507353768 -1.4264106317336798 2.1029610670716194
thorax -9.733573209863554 -0.5109353021502919 4.491333364507946
lowerneck -20.533898261169103 -2.6110255929037507 -1.846363660962164
upperneck 15.803995259351986 -3.350765758162199 2.246500810909529
head 8.33789767759535 -1.4062789530481186 0.5733976153354159
lclavicle -1.728834037040547e-15 1.783627732003194e-15
lhumerus -36.83891233008889 -17.96210398622248 96.67137973778104
lradius 117.95838404936038
lwrist 35.69464879484056
lhand -24.202493251043215 1.9809463824828601
lfingers 7.12502
lthumb 2.2417658163046226 32.01713609372473
rclavicle -1.7288340367678247e-15 1.78362773220173e-15
rhumerus -55.631990518344416 9.869390160647775 -97.96227704519724
rradius 109.06004814692282
rwrist -12.962156984279938
rhand -16.010843014680948 39.85032168621813
rfingers 7.12502
rthumb 10.340431201147238 10.140851632349186
74
root 0.2612630775014666 18.186067402859898 43.06457753422299 4.650123739421856 0.5153451459149492 -0.8608348412358355
lfemur 7.950710913680046 -2.875951802510062 -25.63219934084549
ltibia 42.51396647100992
lfoot -2.196568070069792 -6.153123651471471
ltoes -28.026455228810143
rfemur -33.47126187805707 0.01793364100442485 25.776330061081214
rtibia 57.86836560246277
rfoot -3.4442063461811028 -6.5354705847820505
rtoes -7.2635693133333845
lowerback 13.512752405988426 -1.135578918693239 -1.189994496755362
upperback -2.1831729901095 -1.706201110816525 2.2574012938792816
thorax -9.670407751498491 -0.633833374888286 4.763545007779485
lowerneck -20.401280822842498 -2.5722137080564114 -1.912844700173114
upperneck 15.997205640741559 -3.2813819472859906 2.1662317610571096
head 8.35959031396855 -1.3953376733868454 0.5615636494773593
lclavicle -1.7288340370514407e-15 1.7836277319961216e-15
lhumerus -37.450138167708225 -18.425455641466186 96.79073676428033
lradius 118.01025858196346
lwrist 35.45594943732205
lhand -24.31944963121276 1.6163510939481505
lfingers 7.12502
lthumb 2.103841844301333 31.638374831397414
rclavicle -1.7288340367688948e-15 1.7836277322018257e-15
rhumerus -56.38229017096395 9.604523292863666 -97.38425645418317
rradius 109.40978782445083
rwrist -13.003204745184917
rhand -16.017002749422236 39.88305274530161
rfingers 7.12502
rthumb 10.317499256034544 10.19315672483699
75
root 0.3466496958996961 18.269843640804595 44.48614065714403 4.664282204699392 0.5615639354914006 -0.46881764306674034
lfemur 9.506077375886077 -3.543432436863084 -26.294301830395344
ltibia 42.912866547323716
lfoot 1.3026294334727255 -8.02373856934404
ltoes -27.343689298913368
rfemur -33.95085070249585 -0.1901509345193444 25.63707073258555
rtibia 53.478399350479535
rfoot -2.75625319436433 -6.508355383263398
rtoes -11.81757557194734
lowerback 13.289226215034677 -1.3625877648476616 -1.4006588669230908
upperback -2.268657109182374 -2.0171577573001596 2.334718965510315
thorax -9.58004334166507 -0.7761775130022285 4.988194494315572
lowerneck -20.36658084821765 -2.5741402323661022 -1.973227220129516
upperneck 16.035135241636365 -3.2740071221725815 2.111958624519411
head 8.35812100978355 -1.4072601279781476 0.5481470321958368
lclavicle -1.7288340370578082e-15 1.783627731992439e-15
lhumerus -38.044956173437065 -18.999454977507995 96.98948868147666
lradius 117.69140453900428
lwrist 35.205160994034955
lhand -24.621256378969008 1.5834549496011951
lfingers 7.12502
lthumb 1.7531840596003796 31.576237514868247
rclavicle -1.7288340367686273e-15 1.783627732202939e-15
rhumerus -56.90184791318673 9.221669162806199 -96.85683024679037
rradius 109.76248525535637
rwrist -12.6974957473272
rhand -16.039411354574554 39.8662126299463
rfingers 7.12502
rthumb 10.306886659912404 10.175719766972055
76
root 0.404841538489237 18.312670418058445 45.43878215207702 4.593400890226989 0.5656019973233928 -0.087456190803894
lfemur 10.510579603051204 -4.165190808492362 -26.903857318479147
ltibia 44.146509941567395
lfoot 4.456215717440568 -9.473393351376627
ltoes -26.611261974716832
rfemur -34.2942477612865 -0.4455826020109648 25.52222050385072
rtibia 49.774565641016544
rfoot -1.796260517361107 -6.64439789801744
rtoes -15.202724224967142
lowerback 13.191392230842968 -1.5306523039914355 -1.6485947112014971
upperback -2.2700567567801113 -2.237521155684612 2.35518704500843
thorax -9.546662262505196 -0.8523140452472554 5.103826570495976
lowerneck -20.33743875310407 -2.5872965092842417 -2.0212978534621775
upperneck 15.881545226001567 -3.2839904160614224 2.096195912953233
head 8.295408782395493 -1.4272385312958162 0.5486631326871785
lclavicle -1.7288340370629778e-15 1.783627731989587e-15
lhumerus -38.69139500524449 -19.741178532834805 97.16934834323172
lradius 117.0358021221311
lwrist 35.03927623775561
lhand -24.914678794252552 1.4348359234836356
lfingers 7.12502
lthumb 1.443979528333776 31.459464961365914
rclavicle -1.7288340367672945e-15 1.7836277322048404e-15
rhumerus -57.0801018399231 8.80457672568705 -96.3921021843032
rradius 110.03861017162674
rwrist -12.264733459688149
rhand -15.979505713144686 39.88377511598762
rfingers 7.12502
rthumb 10.35934143452242 10.173626974698273
77
root 0.44208741064000834 18.319249373314783 46.02701155856372 4.423331813053769 0.5341884245747673 0.19420607155670666
lfemur 11.089647221215357 -4.595502799328873 -27.269940052838813
ltibia 46.28112302054358
lfoot 6.996302621309543 -10.218228005095547
ltoes -24.8674969692984
rfemur -34.362175242060545 -0.6412331231332855 25.499436689378665
rtibia 46.89423378169562
rfoot -0.7965717967915049 -6.847359595488012
rtoes -17.211588602160315
lowerback 13.17827281571828 -1.6401627578039846 -1.8159613725351533
upperback -2.1234912441732074 -2.414953828377396 2.3132566543697104
thorax -9.409135696592692 -0.9126291275954524 5.1669286482121075
lowerneck -20.426983162097095 -2.644391398245408 -2.071186198885041
upperneck 15.669664046142266 -3.3664225598775985 2.0937694808448635
head 8.217717437950348 -1.4879865294248602 0.544860704322034
lclavicle -1.7288340370749114e-15 1.7836277319817008e-15
lhumerus -39.27333302120887 -20.39143075834946 97.32162389372577
lradius 115.99276585015613
lwrist 34.989663179214276
lhand -25.03988660213875 1.2470726570923183
lfingers 7.12502
lthumb 1.3137176436558808 31.267977463437845
rclavicle -1.7288340367695262e-15 1.7836277322040022e-15
rhumerus -57.14349833138944 8.28701422490858 -95.98352166605974
rradius 110.20060508479774
rwrist -11.718519258360026
rhand -15.997190428338568 39.83627582042419
rfingers 7.12502
rthumb 10.376168455112097 10.145296410092145
78
root 0.501075305455044 18.29317573671601 46.86561902904686 4.074679208901019 0.6492577892091028 0.4258088327542384
lfemur 11.179739824347559 -4.852007627328697 -27.42585183874432
ltibia 49.19036578274904
lfoot 8.834632181842863 -10.368614987055144
ltoes -22.808897784393096
rfemur -34.096836101954366 -0.8495949987904967 25.509109698489038
rtibia 45.1083131847299
rfoot -0.0950736393583842 -6.944364079038192
rtoes -17.684459965699187
lowerback 13.243640541750413 -1.724131450269042 -1.888796462594968
upperback -1.9448495447618215 -2.518979371831408 2.249880876299125
thorax -9.309086805794355 -0.9951156300221035 5.102548087815684
lowerneck -20.506362033864225 -2.7038173415736995 -2.1041763307622334
upperneck 15.346234969529915 -3.4500137528438457 2.0976105673932905
head 8.114642652736665 -1.547319709283017 0.5391370230866086
lclavicle -1.7288340370741537e-15 1.7836277319830434e-15
lhumerus -39.80518932962629 -20.744505354826202 97.48769707346942
lradius 114.55239835885922
lwrist 35.001097809528744
lhand -25.2084878255035 1.1762274734103773
lfingers 7.12502
lthumb 1.1591738909438067 31.199291064667523
rclavicle -1.7288340367703823e-15 1.783627732204127e-15
rhumerus -57.14298200202945 7.64943934330377 -95.70310171085944
rradius 110.2987610276171
rwrist -11.043310996181788
rhand -15.985763941127967 39.80790833880193
rfingers 7.12502
rthumb 10.367268790060036 10.089238584610284
